<svg width="74" height="60" viewBox="0 0 74 60" fill="none" xmlns="http://www.w3.org/2000/svg">
<path d="M42 5C42 2.23858 39.7614 1.20705e-07 37 0C34.2386 -1.20705e-07 32 2.23858 32 5L42 5ZM33.4645 58.5355C35.4171 60.4882 38.5829 60.4882 40.5355 58.5355L72.3553 26.7157C74.308 24.7631 74.308 21.5973 72.3553 19.6447C70.4027 17.692 67.2369 17.692 65.2843 19.6447L37 47.9289L8.71573 19.6447C6.76311 17.692 3.59728 17.692 1.64466 19.6447C-0.307961 21.5973 -0.307961 24.7631 1.64466 26.7157L33.4645 58.5355ZM32 5L32 55L42 55L42 5L32 5Z" fill="white"/>
</svg>
